<svg width="375" height="12" viewBox="0 0 375 12" fill="none" xmlns="http://www.w3.org/2000/svg">
<g clip-path="url(#clip0_524_121685)">
<path d="M0 25.375H19.7368V5.375C19.7368 5.375 17.1464 2.625 9.86842 2.625C2.59046 2.625 0 5.375 0 5.375V25.375Z" fill="#EE4236"/>
<path d="M157.895 25.375H177.632V5.375C177.632 5.375 175.041 2.625 167.763 2.625C160.485 2.625 157.895 5.375 157.895 5.375V25.375Z" fill="#EE4236"/>
<path d="M78.9474 25.375H98.6842V5.375C98.6842 5.375 96.0938 2.625 88.8158 2.625C81.5378 2.625 78.9474 5.375 78.9474 5.375V25.375Z" fill="#EE4236"/>
<path d="M236.842 25.375H256.579V5.375C256.579 5.375 253.988 2.625 246.711 2.625C239.433 2.625 236.842 5.375 236.842 5.375V25.375Z" fill="#EE4236"/>
<path d="M315.789 25.375H335.526V5.375C335.526 5.375 332.936 2.625 325.658 2.625C318.38 2.625 315.789 5.375 315.789 5.375V25.375Z" fill="#EE4236"/>
<path d="M39.4737 25.375H59.2105V5.375C59.2105 5.375 56.6201 2.625 49.3421 2.625C42.0642 2.625 39.4737 5.375 39.4737 5.375V25.375Z" fill="#EE4236"/>
<path d="M197.368 25.375H217.105V5.375C217.105 5.375 214.515 2.625 207.237 2.625C199.959 2.625 197.368 5.375 197.368 5.375V25.375Z" fill="#EE4236"/>
<path d="M118.421 25.375H138.158V5.375C138.158 5.375 135.567 2.625 128.289 2.625C121.011 2.625 118.421 5.375 118.421 5.375V25.375Z" fill="#EE4236"/>
<path d="M276.316 25.375H296.053V5.375C296.053 5.375 293.462 2.625 286.184 2.625C278.906 2.625 276.316 5.375 276.316 5.375V25.375Z" fill="#EE4236"/>
<path d="M355.263 25.375H375V5.375C375 5.375 372.41 2.625 365.132 2.625C357.854 2.625 355.263 5.375 355.263 5.375V25.375Z" fill="#EE4236"/>
<path d="M19.7369 25.375H39.4737V5.375C39.4737 5.375 36.8833 2.625 29.6053 2.625C22.3273 2.625 19.7369 5.375 19.7369 5.375V25.375Z" fill="#009246"/>
<path d="M177.632 25.375H197.368V5.375C197.368 5.375 194.778 2.625 187.5 2.625C180.222 2.625 177.632 5.375 177.632 5.375V25.375Z" fill="#009246"/>
<path d="M98.6842 25.375H118.421V5.375C118.421 5.375 115.831 2.625 108.553 2.625C101.275 2.625 98.6842 5.375 98.6842 5.375V25.375Z" fill="#009246"/>
<path d="M256.579 25.375H276.316V5.375C276.316 5.375 273.725 2.625 266.447 2.625C259.169 2.625 256.579 5.375 256.579 5.375V25.375Z" fill="#009246"/>
<path d="M335.526 25.375H355.263V5.375C355.263 5.375 352.673 2.625 345.395 2.625C338.117 2.625 335.526 5.375 335.526 5.375V25.375Z" fill="#009246"/>
<path d="M59.2105 25.375H78.9474V5.375C78.9474 5.375 76.3569 2.625 69.0789 2.625C61.801 2.625 59.2105 5.375 59.2105 5.375V25.375Z" fill="#009246"/>
<path d="M217.105 25.375H236.842V5.375C236.842 5.375 234.252 2.625 226.974 2.625C219.696 2.625 217.105 5.375 217.105 5.375V25.375Z" fill="#009246"/>
<path d="M138.158 25.375H157.895V5.375C157.895 5.375 155.304 2.625 148.026 2.625C140.748 2.625 138.158 5.375 138.158 5.375V25.375Z" fill="#009246"/>
<path d="M296.053 25.375H315.789V5.375C315.789 5.375 313.199 2.625 305.921 2.625C298.643 2.625 296.053 5.375 296.053 5.375V25.375Z" fill="#009246"/>
</g>
<defs>
<clipPath id="clip0_524_121685">
<rect width="375" height="17" fill="white" transform="matrix(1 0 0 -1 0 17)"/>
</clipPath>
</defs>
</svg>
