<svg width="40" height="40" viewBox="0 0 40 40" fill="none" xmlns="http://www.w3.org/2000/svg">
<path d="M36.5625 12.5184C36.2105 12.1195 35.7777 11.8001 35.2928 11.5814C34.8079 11.3626 34.282 11.2495 33.75 11.2496H25V8.74963C25 7.09203 24.3415 5.50232 23.1694 4.33022C21.9973 3.15811 20.4076 2.49963 18.75 2.49963C18.5178 2.49947 18.2901 2.56399 18.0925 2.68598C17.8949 2.80797 17.7352 2.98258 17.6313 3.19026L11.7281 14.9996H5C4.33696 14.9996 3.70107 15.263 3.23223 15.7319C2.76339 16.2007 2.5 16.8366 2.5 17.4996V31.2496C2.5 31.9127 2.76339 32.5486 3.23223 33.0174C3.70107 33.4862 4.33696 33.7496 5 33.7496H31.875C32.7886 33.7499 33.6709 33.4167 34.3562 32.8126C35.0415 32.2084 35.4827 31.3748 35.5969 30.4684L37.4719 15.4684C37.5383 14.9403 37.4916 14.4041 37.3348 13.8955C37.178 13.3868 36.9148 12.9174 36.5625 12.5184ZM5 17.4996H11.25V31.2496H5V17.4996ZM34.9906 15.1559L33.1156 30.1559C33.0776 30.458 32.9305 30.7359 32.7021 30.9373C32.4736 31.1387 32.1795 31.2497 31.875 31.2496H13.75V16.5449L19.4859 5.07151C20.3361 5.24166 21.101 5.70113 21.6505 6.37173C22.2001 7.04233 22.5002 7.88263 22.5 8.74963V12.4996C22.5 12.8312 22.6317 13.1491 22.8661 13.3835C23.1005 13.6179 23.4185 13.7496 23.75 13.7496H33.75C33.9274 13.7496 34.1027 13.7873 34.2644 13.8602C34.4261 13.9331 34.5704 14.0397 34.6878 14.1727C34.8051 14.3057 34.8928 14.4622 34.945 14.6317C34.9973 14.8012 35.0128 14.9799 34.9906 15.1559Z" fill="url(#paint0_linear_524_52652)"/>
<defs>
<linearGradient id="paint0_linear_524_52652" x1="2.5" y1="18.1246" x2="37.5012" y2="18.1246" gradientUnits="userSpaceOnUse">
<stop stop-color="white"/>
<stop offset="0.531265" stop-color="#FFCE6F"/>
<stop offset="1" stop-color="#FFE7B8"/>
</linearGradient>
</defs>
</svg>
