<svg width="40" height="40" viewBox="0 0 40 40" fill="none" xmlns="http://www.w3.org/2000/svg">
<g clip-path="url(#clip0_557_38333)">
<path d="M22.5 24.6375C24.4595 23.4171 25.9683 21.5916 26.7979 19.4373C27.6276 17.2831 27.7331 14.9172 27.0984 12.6976C26.4637 10.4781 25.1234 8.52559 23.2802 7.13561C21.4371 5.74564 19.1914 4.99377 16.8828 4.99377C14.5743 4.99377 12.3286 5.74564 10.4854 7.13561C8.64229 8.52559 7.30197 10.4781 6.66729 12.6976C6.0326 14.9172 6.13806 17.2831 6.96773 19.4373C7.7974 21.5916 9.30612 23.4171 11.2656 24.6375C8.03908 25.6938 5.13596 27.6672 2.80158 30.4453C2.58817 30.6992 2.48432 31.0274 2.51289 31.3577C2.54146 31.6881 2.70011 31.9936 2.95393 32.2071C3.20775 32.4205 3.53595 32.5243 3.86634 32.4957C4.19672 32.4672 4.50223 32.3085 4.71565 32.0547C7.85158 28.311 12.1735 26.25 16.875 26.25C21.5766 26.25 25.8985 28.311 29.0422 32.0547C29.2556 32.3085 29.5611 32.4672 29.8915 32.4957C30.2219 32.5243 30.5501 32.4205 30.8039 32.2071C31.0577 31.9936 31.2164 31.6881 31.245 31.3577C31.2735 31.0274 31.1697 30.6992 30.9563 30.4453C28.6219 27.6672 25.7188 25.6938 22.5 24.6375ZM8.75002 15.625C8.75002 14.0181 9.22654 12.4472 10.1193 11.111C11.0121 9.77487 12.2811 8.73346 13.7657 8.1185C15.2504 7.50354 16.884 7.34264 18.4601 7.65614C20.0362 7.96965 21.484 8.74348 22.6203 9.87978C23.7566 11.0161 24.5304 12.4638 24.8439 14.0399C25.1574 15.616 24.9965 17.2497 24.3815 18.7343C23.7666 20.219 22.7252 21.4879 21.389 22.3807C20.0529 23.2735 18.482 23.75 16.875 23.75C14.7209 23.7475 12.6557 22.8907 11.1325 21.3675C9.60932 19.8443 8.7525 17.7791 8.75002 15.625ZM39.6344 20.8844L34.6344 25.8844C34.5183 26.0006 34.3804 26.0928 34.2287 26.1557C34.077 26.2186 33.9143 26.251 33.75 26.251C33.5858 26.251 33.4231 26.2186 33.2713 26.1557C33.1196 26.0928 32.9817 26.0006 32.8656 25.8844L30.3656 23.3844C30.1311 23.1498 29.9993 22.8317 29.9993 22.5C29.9993 22.1683 30.1311 21.8502 30.3656 21.6156C30.6002 21.3811 30.9183 21.2493 31.25 21.2493C31.5817 21.2493 31.8998 21.3811 32.1344 21.6156L33.75 23.2328L37.8656 19.1156C38.1002 18.8811 38.4183 18.7493 38.75 18.7493C39.0817 18.7493 39.3998 18.8811 39.6344 19.1156C39.8689 19.3502 40.0007 19.6683 40.0007 20C40.0007 20.3317 39.8689 20.6498 39.6344 20.8844Z" fill="url(#paint0_linear_557_38333)"/>
</g>
<defs>
<linearGradient id="paint0_linear_557_38333" x1="2.50824" y1="18.7471" x2="40.0007" y2="18.7471" gradientUnits="userSpaceOnUse">
<stop stop-color="white"/>
<stop offset="0.531265" stop-color="#FFCE6F"/>
<stop offset="1" stop-color="#FFE7B8"/>
</linearGradient>
<clipPath id="clip0_557_38333">
<rect width="40" height="40" fill="white"/>
</clipPath>
</defs>
</svg>
