<svg width="41" height="40" viewBox="0 0 41 40" fill="none" xmlns="http://www.w3.org/2000/svg">
<path d="M33 6.25H8C7.33696 6.25 6.70107 6.51339 6.23223 6.98223C5.76339 7.45107 5.5 8.08696 5.5 8.75V17.5C5.5 25.7375 9.4875 30.7297 12.8328 33.4672C16.4359 36.4141 20.0203 37.4141 20.1766 37.4562C20.3914 37.5147 20.618 37.5147 20.8328 37.4562C20.9891 37.4141 24.5688 36.4141 28.1766 33.4672C31.5125 30.7297 35.5 25.7375 35.5 17.5V8.75C35.5 8.08696 35.2366 7.45107 34.7678 6.98223C34.2989 6.51339 33.663 6.25 33 6.25ZM33 17.5C33 23.2922 30.8656 27.9937 26.6562 31.4719C24.8239 32.9808 22.7399 34.155 20.5 34.9406C18.2894 34.1687 16.2312 33.0153 14.4188 31.5328C10.1594 28.0484 8 23.3281 8 17.5V8.75H33V17.5ZM13.3656 22.1344C13.1311 21.8998 12.9993 21.5817 12.9993 21.25C12.9993 20.9183 13.1311 20.6002 13.3656 20.3656C13.6002 20.1311 13.9183 19.9993 14.25 19.9993C14.5817 19.9993 14.8998 20.1311 15.1344 20.3656L18 23.2328L25.8656 15.3656C25.9818 15.2495 26.1196 15.1574 26.2714 15.0945C26.4231 15.0317 26.5858 14.9993 26.75 14.9993C26.9142 14.9993 27.0769 15.0317 27.2286 15.0945C27.3804 15.1574 27.5182 15.2495 27.6344 15.3656C27.7505 15.4818 27.8426 15.6196 27.9055 15.7714C27.9683 15.9231 28.0007 16.0858 28.0007 16.25C28.0007 16.4142 27.9683 16.5769 27.9055 16.7286C27.8426 16.8804 27.7505 17.0182 27.6344 17.1344L18.8844 25.8844C18.7683 26.0006 18.6304 26.0928 18.4787 26.1557C18.3269 26.2186 18.1643 26.251 18 26.251C17.8357 26.251 17.6731 26.2186 17.5213 26.1557C17.3696 26.0928 17.2317 26.0006 17.1156 25.8844L13.3656 22.1344Z" fill="url(#paint0_linear_524_52657)"/>
<defs>
<linearGradient id="paint0_linear_524_52657" x1="5.5" y1="21.875" x2="35.5" y2="21.875" gradientUnits="userSpaceOnUse">
<stop stop-color="white"/>
<stop offset="0.531265" stop-color="#FFCE6F"/>
<stop offset="1" stop-color="#FFE7B8"/>
</linearGradient>
</defs>
</svg>
