<svg width="145" height="31" viewBox="0 0 145 31" fill="none" xmlns="http://www.w3.org/2000/svg">
<rect x="0.854065" width="30.8847" height="30.8847" rx="15.4424" fill="#EE4236"/>
<g clip-path="url(#clip0_524_52501)">
<g clip-path="url(#clip1_524_52501)">
<g clip-path="url(#clip2_524_52501)">
<path opacity="0.21" d="M13.3508 9.17112C12.91 9.17112 12.4729 9.19325 12.0432 9.27814C11.6839 9.34827 11.3468 9.47746 11.1431 9.80224C11.0579 9.93882 10.9986 10.1049 10.9727 10.2636C10.8764 10.8652 11.0542 11.3893 11.4654 11.8433C11.7617 12.1681 12.1062 12.4228 12.5063 12.6036C12.6137 12.6516 12.7137 12.707 12.8211 12.7586C12.9582 12.8251 13.0249 12.9432 12.9989 13.0945C12.9582 13.3086 12.91 13.5227 12.7878 13.7109C12.6026 13.9951 12.3396 14.1796 12.0284 14.3051C11.6654 14.4491 11.3135 14.4454 10.9505 14.2904C10.6023 14.139 10.2689 13.9619 9.96516 13.733C9.57622 13.4378 9.25025 13.0835 9.00947 12.6553C8.68721 12.0906 8.55015 11.4779 8.57608 10.832C8.5909 10.4703 8.66128 10.1197 8.7724 9.77641C8.86871 9.48114 8.99836 9.20801 9.15764 8.94227C9.53177 8.31114 10.0392 7.81656 10.669 7.44747C11.2542 7.10791 11.8802 6.92706 12.5507 6.91968C13.5323 6.9123 14.514 6.9123 15.4956 6.91968C16.066 6.92337 16.6365 6.9529 17.2069 6.97135C17.77 6.98981 18.3367 7.01564 18.8998 7.02302C19.8851 7.0341 20.8704 7.04517 21.852 7.0341C22.2965 7.02671 22.7447 6.97135 23.1893 6.92706C23.3189 6.91599 23.4448 6.87908 23.5708 6.85324C23.7967 6.80895 23.9079 6.86062 24.0042 7.06362C24.2672 7.60987 24.2227 8.14505 23.9227 8.65808C23.6301 9.15636 23.1818 9.46269 22.6559 9.66937C22.1891 9.85392 21.7002 9.90561 21.2075 9.93882C20.6259 9.97941 20.0481 9.9425 19.4702 9.87237C19.2702 9.84654 19.2294 9.89084 19.2109 10.0901C19.1739 10.4555 19.1257 10.8209 19.085 11.19C19.0405 11.5517 18.9998 11.9171 18.959 12.2788C18.9479 12.3674 18.9479 12.456 18.9294 12.5446C18.9109 12.6368 18.9479 12.6627 19.0331 12.6738C19.2702 12.707 19.5073 12.6922 19.7443 12.6701C20.2444 12.6258 20.7185 12.4855 21.189 12.3268C21.3445 12.2751 21.5001 12.2235 21.6594 12.1902C21.715 12.1792 21.7927 12.2124 21.8409 12.2493C22.0854 12.4449 22.1891 12.707 22.2002 13.0133C22.215 13.4119 22.141 13.7847 21.915 14.1206C21.7483 14.3716 21.5223 14.5598 21.2556 14.7001C20.7519 14.9621 20.2073 15.0544 19.6443 15.0544C19.4258 15.0544 19.2072 15.0433 18.9887 15.0359C18.8442 15.0322 18.8257 15.0507 18.8145 15.1946C18.796 15.4087 18.7812 15.6228 18.7553 15.8368C18.6775 16.5344 18.6034 17.2283 18.5108 17.9259C18.433 18.5312 18.3145 19.1328 18.1367 19.7196C18.0478 20.0112 17.9626 20.3028 17.8552 20.587C17.6959 21.0188 17.4773 21.4211 17.2254 21.805C16.8735 22.3402 16.4439 22.8089 15.929 23.1965C15.4178 23.5766 14.8584 23.8645 14.225 23.9863C13.8138 24.0638 13.399 24.0786 12.9915 23.9863C12.3692 23.8387 11.8321 23.5397 11.4506 23.0082C11.2394 22.7129 11.0913 22.3881 11.0024 22.0338C10.8542 21.447 10.8542 20.8601 10.9764 20.2696C11.0839 19.7529 11.2727 19.2657 11.5246 18.7969C11.7987 18.2876 12.1321 17.8225 12.5063 17.3833C12.873 16.9515 13.273 16.5492 13.7101 16.1875C14.0954 15.8737 14.4917 15.5711 14.8844 15.2611C15.0511 15.1319 15.2177 15.0027 15.3807 14.8661C15.4659 14.796 15.4622 14.7812 15.3881 14.7001C15.2807 14.582 15.1659 14.4712 15.0696 14.342C14.851 14.0504 14.7584 13.5227 14.9807 13.1868C15.1178 12.9764 15.3104 12.8325 15.5437 12.7476C15.603 12.7254 15.6623 12.7107 15.7215 12.6959C15.8919 12.6516 15.9475 12.5926 15.966 12.4191C16.0179 11.9245 16.1253 11.441 16.2734 10.9686C16.3883 10.5995 16.5291 10.2378 16.6587 9.87607C16.6883 9.79118 16.7291 9.70629 16.7624 9.62139C16.7846 9.56235 16.7735 9.52176 16.6994 9.51067C16.6069 9.49961 16.5179 9.48484 16.4253 9.47376C15.9475 9.41101 15.4733 9.33721 14.9955 9.28923C14.451 9.23016 13.9028 9.19325 13.3545 9.14527C13.3545 9.15265 13.3545 9.16374 13.3508 9.17112ZM15.6141 16.9404C15.603 16.933 15.5882 16.9293 15.5771 16.922C15.4585 17.0327 15.3363 17.136 15.2252 17.2541C14.8325 17.6786 14.4732 18.1289 14.1472 18.6087C13.8027 19.1143 13.4953 19.6458 13.2804 20.2216C13.1693 20.5169 13.0804 20.8195 13.1027 21.1369C13.1323 21.5282 13.3027 21.7681 13.7249 21.8825C13.9028 21.9305 14.0695 21.8714 14.2139 21.7718C14.4621 21.602 14.614 21.351 14.7436 21.0853C14.9029 20.7568 15.0288 20.4172 15.1103 20.0629C15.2252 19.5573 15.34 19.0516 15.4252 18.5386C15.503 18.0809 15.54 17.6195 15.5956 17.1582C15.603 17.088 15.6067 17.0142 15.6141 16.9404Z" stroke="#1B2839" stroke-width="0.949589" stroke-miterlimit="10"/>
<path d="M12.8821 8.73927C12.4413 8.73927 12.0042 8.76142 11.5745 8.84629C11.2152 8.91641 10.8781 9.0456 10.6744 9.37041C10.5892 9.50696 10.5299 9.67304 10.504 9.83177C10.4076 10.4334 10.5855 10.9575 10.9966 11.4115C11.293 11.7363 11.6375 11.9909 12.0375 12.1718C12.1449 12.2197 12.245 12.2751 12.3524 12.3268C12.4894 12.3932 12.5561 12.5113 12.5302 12.6627C12.4894 12.8767 12.4413 13.0908 12.319 13.279C12.1338 13.5632 11.8708 13.7478 11.5597 13.8733C11.1967 14.0172 10.8447 14.0135 10.4817 13.8585C10.1335 13.7072 9.80016 13.53 9.49642 13.3012C9.10747 13.0059 8.7815 12.6516 8.54073 12.2235C8.21846 11.6588 8.0814 11.0461 8.10733 10.4001C8.12215 10.0384 8.19253 9.68781 8.30366 9.34456C8.39997 9.04928 8.52961 8.77616 8.68889 8.51042C9.06302 7.87929 9.5705 7.38471 10.2002 7.01562C10.7855 6.67606 11.4115 6.49152 12.082 6.48782C13.0636 6.48044 14.0452 6.48044 15.0268 6.48782C15.5973 6.49152 16.1677 6.52104 16.7382 6.5395C17.3012 6.55795 17.868 6.58379 18.431 6.59117C19.4163 6.60224 20.4016 6.61331 21.3833 6.60224C21.8278 6.59486 22.276 6.5395 22.7205 6.4952C22.8501 6.48413 22.9761 6.44722 23.102 6.42139C23.328 6.3771 23.4391 6.42877 23.5354 6.63177C23.7984 7.17802 23.754 7.71319 23.4539 8.22623C23.1613 8.7245 22.7131 9.03084 22.1871 9.23754C21.7204 9.42207 21.2314 9.47375 20.7387 9.50696C20.1572 9.54756 19.5793 9.51064 19.0015 9.44054C18.8014 9.41469 18.7607 9.45898 18.7422 9.65828C18.7051 10.0237 18.657 10.3891 18.6162 10.7582C18.5718 11.1199 18.531 11.4853 18.4903 11.847C18.4792 11.9356 18.4792 12.0241 18.4606 12.1127C18.4421 12.205 18.4792 12.2308 18.5644 12.2419C18.8014 12.2751 19.0385 12.2604 19.2756 12.2382C19.7757 12.1939 20.2498 12.0537 20.7202 11.895C20.8758 11.8433 21.0314 11.7916 21.1907 11.7584C21.2462 11.7473 21.324 11.7805 21.3722 11.8175C21.6166 12.0131 21.7204 12.2751 21.7315 12.5815C21.7463 12.9801 21.6722 13.3529 21.4462 13.6887C21.2796 13.9397 21.0536 14.1279 20.7869 14.2682C20.2831 14.5302 19.7386 14.6225 19.1756 14.6225C18.957 14.6225 18.7385 14.6115 18.5199 14.6041C18.3754 14.6004 18.3569 14.6188 18.3458 14.7628C18.3273 14.9768 18.3125 15.1909 18.2865 15.405C18.2088 16.1026 18.1347 16.7964 18.0421 17.494C17.9643 18.0993 17.8457 18.7009 17.6679 19.2878C17.579 19.5794 17.4938 19.8709 17.3864 20.1552C17.2271 20.587 17.0086 20.9893 16.7567 21.3731C16.4048 21.9083 15.9751 22.377 15.4602 22.7646C14.949 23.1447 14.3897 23.4326 13.7563 23.5544C13.3451 23.632 12.9302 23.6467 12.5228 23.5544C11.9004 23.4068 11.3633 23.1079 10.9818 22.5764C10.7707 22.2811 10.6225 21.9563 10.5336 21.602C10.3854 21.0151 10.3854 20.4283 10.5077 19.8377C10.6151 19.321 10.804 18.8338 11.0559 18.3651C11.33 17.8557 11.6634 17.3907 12.0375 16.9515C12.4042 16.5196 12.8043 16.1173 13.2414 15.7556C13.6266 15.4419 14.023 15.1392 14.4156 14.8292C14.5823 14.7 14.749 14.5708 14.912 14.4343C14.9972 14.3642 14.9935 14.3494 14.9194 14.2682C14.812 14.1501 14.6972 14.0393 14.6008 13.9102C14.3823 13.6186 14.2897 13.0908 14.5119 12.7549C14.649 12.5446 14.8416 12.4006 15.075 12.3157C15.1343 12.2936 15.1935 12.2788 15.2528 12.264C15.4232 12.2197 15.4787 12.1607 15.4973 11.9872C15.5491 11.4926 15.6565 11.0091 15.8047 10.5367C15.9195 10.1676 16.0603 9.80592 16.19 9.44422C16.2196 9.35932 16.2603 9.27443 16.2937 9.18954C16.3159 9.1305 16.3048 9.0899 16.2307 9.07882C16.1381 9.06775 16.0492 9.05299 15.9566 9.0419C15.4787 8.97916 15.0046 8.90535 14.5268 8.85737C13.9822 8.79831 13.434 8.76142 12.8858 8.71341C12.8858 8.7208 12.8821 8.72818 12.8821 8.73927ZM15.1417 16.5086C15.1305 16.5012 15.1157 16.4975 15.1046 16.4901C14.9861 16.6008 14.8638 16.7042 14.7527 16.8223C14.3601 17.2467 14.0008 17.697 13.6748 18.1768C13.3303 18.6825 13.0228 19.214 12.808 19.7898C12.6969 20.085 12.608 20.3877 12.6302 20.7051C12.6598 21.0963 12.8302 21.3362 13.2525 21.4506C13.4303 21.4986 13.597 21.4396 13.7415 21.3399C13.9896 21.1701 14.1415 20.9191 14.2712 20.6534C14.4304 20.3249 14.5564 19.9854 14.6379 19.631C14.7527 19.1254 14.8675 18.6197 14.9527 18.1067C15.0305 17.649 15.0676 17.1877 15.1231 16.7263C15.1343 16.6562 15.138 16.5824 15.1417 16.5086Z" fill="white"/>
</g>
</g>
</g>
<path d="M43.6726 16.5707V13.8091H49.1168V16.5707H43.6726ZM44.5208 21.6598H41.6409V8.22686H50.1031V11.0081H43.5148L44.5208 9.80489V21.6598Z" fill="#1B2839"/>
<path d="M53.9041 21.7584C53.4175 21.7584 52.9704 21.6598 52.5628 21.4626C52.1551 21.2653 51.8264 20.9629 51.5765 20.5552C51.3266 20.1344 51.2017 19.5755 51.2017 18.8785V8.22686H54.0619V17.8528C54.0619 18.3394 54.1474 18.655 54.3183 18.7996C54.5024 18.9311 54.7326 18.9969 55.0087 18.9969V21.6598C54.8772 21.6861 54.6997 21.7058 54.4761 21.719C54.2657 21.7453 54.075 21.7584 53.9041 21.7584Z" fill="#1B2839"/>
<path d="M59.0432 21.6598H56.1633V12.0141H59.0432V21.6598ZM55.9068 8.97642C55.9068 8.46356 56.0581 8.04933 56.3605 7.73372C56.6761 7.41812 57.0904 7.26031 57.6032 7.26031C58.1161 7.26031 58.5237 7.41812 58.8262 7.73372C59.1418 8.04933 59.2996 8.46356 59.2996 8.97642C59.2996 9.47613 59.1418 9.88379 58.8262 10.1994C58.5237 10.5018 58.1161 10.6531 57.6032 10.6531C57.0904 10.6531 56.6761 10.5018 56.3605 10.1994C56.0581 9.88379 55.9068 9.47613 55.9068 8.97642Z" fill="#1B2839"/>
<path d="M62.868 12.0141L63.6176 14.677V21.6598H60.7377V12.0141H62.868ZM62.9864 16.2748L62.4932 16.0578V13.8289L62.6708 13.5922C62.8286 13.3686 63.0521 13.1122 63.3414 12.8229C63.6439 12.5336 63.9924 12.2903 64.3869 12.093C64.7945 11.8826 65.2088 11.7774 65.6296 11.7774C65.84 11.7774 66.0307 11.7906 66.2016 11.8169C66.3726 11.8432 66.5106 11.8892 66.6158 11.9549V14.5784H65.9649C65.1233 14.5784 64.4592 14.7165 63.9726 14.9927C63.4992 15.2557 63.1705 15.683 62.9864 16.2748Z" fill="#1B2839"/>
<path d="M71.983 21.8176C70.9178 21.8176 70.0762 21.5546 69.4581 21.0286C68.8532 20.5026 68.5508 19.6413 68.5508 18.4446V12.1325L68.5113 12.0141L69.1031 9.68653H71.4307V17.8134C71.4307 18.2605 71.5359 18.5827 71.7463 18.7799C71.9567 18.964 72.2328 19.0561 72.5748 19.0561C72.772 19.0561 72.9561 19.0429 73.1271 19.0166C73.3112 18.9772 73.4624 18.9377 73.5807 18.8983V21.6006C73.3572 21.6664 73.1139 21.719 72.8509 21.7584C72.6011 21.7979 72.3117 21.8176 71.983 21.8176ZM67.0517 14.6573V12.0141H73.5807V14.6573H67.0517Z" fill="#1B2839"/>
<path d="M78.3634 21.8965C77.6533 21.8965 77.0746 21.7913 76.6275 21.5809C76.1936 21.3705 75.8517 21.0812 75.6018 20.713C75.3651 20.3316 75.2007 19.9043 75.1087 19.4309C75.0298 18.9443 74.9903 18.4314 74.9903 17.8923V12.0141H77.8702V17.7345C77.8702 18.2736 77.982 18.6353 78.2056 18.8194C78.4291 18.9903 78.7053 19.0758 79.034 19.0758C79.3233 19.0758 79.6061 19.0298 79.8822 18.9377C80.1584 18.8325 80.428 18.6879 80.691 18.5038C80.954 18.3065 81.1907 18.0698 81.4011 17.7937L81.8942 19.2533H81.0855V12.0141H83.9851V21.6598H81.835L81.2433 19.7465L82.2295 19.8254C81.9139 20.1936 81.5457 20.5421 81.1249 20.8708C80.7173 21.1864 80.2833 21.4363 79.8231 21.6204C79.3628 21.8045 78.8762 21.8965 78.3634 21.8965Z" fill="#1B2839"/>
<path d="M90.5236 21.6598V8.22686H95.2182C96.6122 8.22686 97.8088 8.49644 98.8082 9.0356C99.8208 9.56161 100.597 10.3309 101.136 11.3435C101.688 12.3429 101.964 13.5461 101.964 14.9532C101.964 16.3734 101.688 17.5833 101.136 18.5827C100.597 19.5821 99.8208 20.3448 98.8082 20.8708C97.7957 21.3968 96.5924 21.6598 95.1985 21.6598H90.5236ZM93.4035 19.9634L92.2594 18.8785H95.0012C95.8034 18.8785 96.5004 18.747 97.0921 18.484C97.697 18.2079 98.1639 17.7805 98.4926 17.2019C98.8345 16.6233 99.0055 15.8737 99.0055 14.9532C99.0055 14.0458 98.8411 13.3028 98.5124 12.7242C98.1836 12.1456 97.7168 11.7182 97.1119 11.4421C96.5201 11.1528 95.8231 11.0081 95.021 11.0081H92.1213L93.4035 10.1599V19.9634Z" fill="#1B2839"/>
<path d="M105.836 21.9163C105.139 21.9163 104.521 21.7848 103.982 21.5217C103.456 21.2456 103.048 20.8642 102.759 20.3777C102.469 19.8911 102.325 19.3257 102.325 18.6813C102.325 17.9975 102.483 17.4189 102.798 16.9455C103.114 16.4589 103.535 16.0841 104.061 15.8211C104.6 15.5581 105.198 15.4266 105.856 15.4266C106.816 15.4266 107.591 15.6436 108.183 16.0775C108.775 16.5115 109.169 17.1361 109.367 17.9515L108.124 17.7345V15.4858C108.124 15.1307 107.999 14.8217 107.749 14.5587C107.499 14.2957 107.098 14.1642 106.546 14.1642C106.191 14.1642 105.783 14.2102 105.323 14.3023C104.863 14.3812 104.389 14.539 103.903 14.7757L103.055 12.7242C103.633 12.4349 104.251 12.2048 104.909 12.0339C105.579 11.8629 106.263 11.7774 106.96 11.7774C107.854 11.7774 108.604 11.9352 109.209 12.2508C109.814 12.5664 110.261 13.0135 110.55 13.5922C110.853 14.1708 111.004 14.8414 111.004 15.6041V21.6598H108.657L108.085 19.7859L109.367 19.3914C109.156 20.1804 108.755 20.7985 108.163 21.2456C107.572 21.6927 106.796 21.9163 105.836 21.9163ZM106.724 19.8648C107.157 19.8648 107.499 19.753 107.749 19.5295C108.012 19.3059 108.144 19.0232 108.144 18.6813C108.144 18.3131 108.012 18.0238 107.749 17.8134C107.499 17.603 107.157 17.4978 106.724 17.4978C106.29 17.4978 105.948 17.603 105.698 17.8134C105.448 18.0238 105.323 18.3131 105.323 18.6813C105.323 19.0232 105.448 19.3059 105.698 19.5295C105.948 19.753 106.29 19.8648 106.724 19.8648Z" fill="#1B2839"/>
<path d="M116.723 21.8176C115.658 21.8176 114.817 21.5546 114.198 21.0286C113.594 20.5026 113.291 19.6413 113.291 18.4446V12.1325L113.252 12.0141L113.843 9.68653H116.171V17.8134C116.171 18.2605 116.276 18.5827 116.487 18.7799C116.697 18.964 116.973 19.0561 117.315 19.0561C117.512 19.0561 117.696 19.0429 117.867 19.0166C118.052 18.9772 118.203 18.9377 118.321 18.8983V21.6006C118.098 21.6664 117.854 21.719 117.591 21.7584C117.341 21.7979 117.052 21.8176 116.723 21.8176ZM111.792 14.6573V12.0141H118.321V14.6573H111.792Z" fill="#1B2839"/>
<path d="M122.768 21.6598H119.888V12.0141H122.768V21.6598ZM119.632 8.97642C119.632 8.46356 119.783 8.04933 120.086 7.73372C120.401 7.41812 120.816 7.26031 121.328 7.26031C121.841 7.26031 122.249 7.41812 122.551 7.73372C122.867 8.04933 123.025 8.46356 123.025 8.97642C123.025 9.47613 122.867 9.88379 122.551 10.1994C122.249 10.5018 121.841 10.6531 121.328 10.6531C120.816 10.6531 120.401 10.5018 120.086 10.1994C119.783 9.88379 119.632 9.47613 119.632 8.97642Z" fill="#1B2839"/>
<path d="M130.4 11.7774C131.045 11.7774 131.571 11.8892 131.978 12.1128C132.386 12.3232 132.695 12.619 132.905 13.0004C133.129 13.3817 133.274 13.8157 133.339 14.3023C133.418 14.7757 133.458 15.2688 133.458 15.7817V21.6598H130.578V15.9395C130.578 15.3872 130.479 15.0255 130.282 14.8546C130.085 14.6705 129.822 14.5784 129.493 14.5784C129.217 14.5784 128.927 14.6376 128.625 14.7559C128.336 14.8612 128.053 15.0124 127.777 15.2096C127.501 15.4069 127.257 15.6304 127.047 15.8803L126.534 14.4206H127.343V21.6598H124.463V12.0141H126.593L127.185 13.9275L126.199 13.8486C126.541 13.4672 126.929 13.1187 127.363 12.8031C127.796 12.4875 128.27 12.2377 128.783 12.0536C129.296 11.8695 129.835 11.7774 130.4 11.7774Z" fill="#1B2839"/>
<path d="M139.175 25.6049C138.662 25.6049 138.136 25.526 137.597 25.3682C137.071 25.2235 136.585 24.9671 136.137 24.5989C135.69 24.2438 135.316 23.7704 135.013 23.1787L134.855 22.8433L136.926 21.7782C137.255 22.291 137.584 22.6592 137.913 22.8828C138.255 23.1063 138.689 23.2181 139.215 23.2181C139.819 23.2181 140.313 23.0209 140.694 22.6264C141.075 22.245 141.266 21.6664 141.266 20.8905V18.2868H141.463V14.4403H141.266L141.996 12.0141H144.146V20.279C144.146 21.41 143.949 22.3765 143.554 23.1787C143.16 23.9808 142.588 24.5858 141.838 24.9934C141.102 25.4011 140.214 25.6049 139.175 25.6049ZM138.8 21.147C137.932 21.147 137.163 20.9497 136.492 20.5552C135.835 20.1607 135.309 19.6084 134.914 18.8983C134.533 18.1882 134.342 17.3794 134.342 16.4721C134.342 15.5515 134.526 14.7428 134.895 14.0458C135.276 13.3357 135.802 12.7834 136.473 12.3889C137.143 11.9812 137.906 11.7774 138.761 11.7774C139.563 11.7774 140.267 11.9747 140.871 12.3692C141.476 12.7637 141.95 13.3094 142.292 14.0064C142.634 14.7033 142.805 15.5252 142.805 16.4721C142.805 17.4452 142.64 18.2802 142.311 18.9772C141.983 19.6741 141.516 20.2133 140.911 20.5947C140.319 20.9629 139.616 21.147 138.8 21.147ZM139.353 18.6221C139.958 18.6221 140.451 18.4183 140.832 18.0106C141.227 17.603 141.424 17.0901 141.424 16.4721C141.424 15.8277 141.227 15.3017 140.832 14.894C140.451 14.4864 139.958 14.2825 139.353 14.2825C138.748 14.2825 138.248 14.4864 137.854 14.894C137.472 15.3017 137.281 15.8277 137.281 16.4721C137.281 17.0901 137.472 17.603 137.854 18.0106C138.248 18.4183 138.748 18.6221 139.353 18.6221Z" fill="#1B2839"/>
<defs>
<clipPath id="clip0_524_52501">
<rect width="30.8847" height="18.517" fill="white" transform="translate(0.854248 6.16901)"/>
</clipPath>
<clipPath id="clip1_524_52501">
<rect width="30.8847" height="18.517" fill="white" transform="translate(0.854248 6.16901)"/>
</clipPath>
<clipPath id="clip2_524_52501">
<rect width="16.8552" height="18.517" fill="white" transform="translate(7.86792 6.16901)"/>
</clipPath>
</defs>
</svg>
