<svg width="41" height="40" viewBox="0 0 41 40" fill="none" xmlns="http://www.w3.org/2000/svg">
<path d="M20.5 3.75C17.2861 3.75 14.1443 4.70305 11.472 6.48862C8.79969 8.27419 6.71689 10.8121 5.48696 13.7814C4.25704 16.7507 3.93524 20.018 4.56225 23.1702C5.18926 26.3224 6.73692 29.2179 9.00952 31.4905C11.2821 33.7631 14.1776 35.3107 17.3298 35.9378C20.482 36.5648 23.7493 36.243 26.7186 35.013C29.6879 33.7831 32.2258 31.7003 34.0114 29.028C35.797 26.3557 36.75 23.2139 36.75 20C36.745 15.6918 35.0314 11.5614 31.985 8.515C28.9386 5.4686 24.8083 3.75496 20.5 3.75ZM34.1906 18.75H27.9672C27.6875 13.0453 25.4906 9.01094 23.6891 6.625C26.4864 7.29674 29.0033 8.82714 30.8869 11.0016C32.7705 13.176 33.9263 15.8855 34.1922 18.75H34.1906ZM15.5359 21.25H25.4641C25.1031 27.7516 21.9906 31.7359 20.5 33.2812C19.0078 31.7344 15.8969 27.75 15.5359 21.25ZM15.5359 18.75C15.8969 12.2484 19.0094 8.26406 20.5 6.71875C21.9922 8.27031 25.1031 12.2547 25.4641 18.75H15.5359ZM17.3109 6.625C15.5094 9.01094 13.3125 13.0453 13.0328 18.75H6.80782C7.07375 15.8855 8.22955 13.176 10.1131 11.0016C11.9967 8.82714 14.5136 7.29674 17.3109 6.625ZM6.80782 21.25H13.0328C13.3172 26.9547 15.5094 30.9891 17.3109 33.375C14.5136 32.7033 11.9967 31.1729 10.1131 28.9984C8.22955 26.824 7.07375 24.1145 6.80782 21.25ZM23.6828 33.375C25.4844 30.9891 27.6766 26.9547 27.9609 21.25H34.1859C33.9204 24.1137 32.7655 26.8225 30.8831 28.9969C29.0008 31.1712 26.4852 32.7021 23.6891 33.375H23.6828Z" fill="url(#paint0_linear_524_52637)"/>
<defs>
<linearGradient id="paint0_linear_524_52637" x1="4.25" y1="20" x2="36.75" y2="20" gradientUnits="userSpaceOnUse">
<stop stop-color="white"/>
<stop offset="0.531265" stop-color="#FFCE6F"/>
<stop offset="1" stop-color="#FFE7B8"/>
</linearGradient>
</defs>
</svg>
