<svg width="40" height="14" viewBox="0 0 40 14" fill="none" xmlns="http://www.w3.org/2000/svg">
<path d="M2.82715 13.5H0.146484V0.650391H7.51172V2.88281H2.82715V6.19629H7.18652V8.41992H2.82715V13.5ZM13.7695 0.650391C14.9355 0.650391 15.8965 0.791016 16.6523 1.07227C17.4141 1.35352 17.9795 1.77832 18.3486 2.34668C18.7178 2.91504 18.9023 3.63281 18.9023 4.5C18.9023 5.08594 18.791 5.59863 18.5684 6.03809C18.3457 6.47754 18.0527 6.84961 17.6895 7.1543C17.3262 7.45898 16.9336 7.70801 16.5117 7.90137L20.291 13.5H17.2676L14.2002 8.56934H12.75V13.5H10.0254V0.650391H13.7695ZM13.5762 2.88281H12.75V6.35449H13.6289C14.5312 6.35449 15.1758 6.20508 15.5625 5.90625C15.9551 5.60156 16.1514 5.15625 16.1514 4.57031C16.1514 3.96094 15.9404 3.52734 15.5186 3.26953C15.1025 3.01172 14.4551 2.88281 13.5762 2.88281ZM29.3086 13.5H21.9082V0.650391H29.3086V2.88281H24.6328V5.7041H28.9834V7.93652H24.6328V11.25H29.3086V13.5ZM39.3984 13.5H31.998V0.650391H39.3984V2.88281H34.7227V5.7041H39.0732V7.93652H34.7227V11.25H39.3984V13.5Z" fill="url(#paint0_linear_524_52662)"/>
<defs>
<linearGradient id="paint0_linear_524_52662" x1="-1.5" y1="7" x2="40.5" y2="7" gradientUnits="userSpaceOnUse">
<stop stop-color="white"/>
<stop offset="0.531265" stop-color="#FFCE6F"/>
<stop offset="1" stop-color="#FFE7B8"/>
</linearGradient>
</defs>
</svg>
