<svg width="23" height="23" viewBox="0 0 23 23" fill="none" xmlns="http://www.w3.org/2000/svg">
<rect x="0.279358" y="0.422546" width="22.1549" height="22.1549" rx="11.0775" fill="#29A0DC"/>
<path d="M7.67056 12.4882L4.86715 11.5748C4.86715 11.5748 4.53211 11.4389 4.63999 11.1306C4.6622 11.0671 4.707 11.013 4.84102 10.92C5.46218 10.4871 16.3382 6.57796 16.3382 6.57796C16.3382 6.57796 16.6453 6.47448 16.8264 6.54331C16.8712 6.55717 16.9115 6.5827 16.9432 6.61726C16.9749 6.65182 16.9969 6.69419 17.0068 6.74002C17.0264 6.82097 17.0346 6.90426 17.0311 6.98747C17.0303 7.05946 17.0216 7.12618 17.015 7.2308C16.9487 8.29957 14.9664 16.2762 14.9664 16.2762C14.9664 16.2762 14.8478 16.7429 14.4229 16.7589C14.3185 16.7623 14.2144 16.7446 14.117 16.7069C14.0196 16.6692 13.9307 16.6123 13.8557 16.5395C13.0219 15.8222 10.1398 13.8853 9.50293 13.4593C9.48856 13.4496 9.47646 13.4368 9.46745 13.4219C9.45843 13.4071 9.45271 13.3905 9.45066 13.3732C9.44176 13.3283 9.49058 13.2727 9.49058 13.2727C9.49058 13.2727 14.5091 8.8119 14.6426 8.34361C14.6529 8.30733 14.6139 8.28943 14.5614 8.30532C14.2281 8.42794 8.44995 12.0769 7.81223 12.4796C7.76632 12.4935 7.71781 12.4964 7.67056 12.4882Z" fill="white"/>
</svg>
