<svg width="20" height="16" viewBox="0 0 20 16" fill="none" xmlns="http://www.w3.org/2000/svg">
<path d="M5.30106 8.89019L1.12536 7.52966C1.12536 7.52966 0.626316 7.32719 0.787007 6.86808C0.820087 6.7734 0.886816 6.69284 1.08643 6.55439C2.01166 5.90949 18.2116 0.0868 18.2116 0.0868C18.2116 0.0868 18.669 -0.0673328 18.9387 0.0351848C19.0055 0.0558433 19.0655 0.0938587 19.1128 0.145341C19.16 0.196824 19.1927 0.259926 19.2075 0.328194C19.2367 0.448772 19.2489 0.572827 19.2437 0.696773C19.2425 0.803995 19.2295 0.903376 19.2196 1.05922C19.121 2.65117 16.1684 14.5324 16.1684 14.5324C16.1684 14.5324 15.9917 15.2276 15.3588 15.2514C15.2032 15.2564 15.0483 15.2301 14.9031 15.174C14.758 15.1178 14.6256 15.033 14.514 14.9246C13.2719 13.8562 8.979 10.9712 8.03039 10.3367C8.009 10.3221 7.99098 10.3031 7.97755 10.281C7.96412 10.2589 7.95559 10.2341 7.95254 10.2084C7.93928 10.1415 8.012 10.0587 8.012 10.0587C8.012 10.0587 15.4871 3.41427 15.686 2.71675C15.7014 2.66271 15.6432 2.63605 15.5651 2.65972C15.0686 2.84237 6.46198 8.27751 5.51208 8.87736C5.44371 8.89805 5.37144 8.90244 5.30106 8.89019Z" fill="white"/>
</svg>
