<svg width="375" height="12" viewBox="0 0 375 12" fill="none" xmlns="http://www.w3.org/2000/svg">
<g clip-path="url(#clip0_534_66381)">
<path d="M0 -13.375H19.7368V6.625C19.7368 6.625 17.1464 9.375 9.86842 9.375C2.59046 9.375 0 6.625 0 6.625V-13.375Z" fill="#EE4236"/>
<path d="M157.895 -13.375H177.632V6.625C177.632 6.625 175.041 9.375 167.763 9.375C160.485 9.375 157.895 6.625 157.895 6.625V-13.375Z" fill="#EE4236"/>
<path d="M78.9474 -13.375H98.6842V6.625C98.6842 6.625 96.0938 9.375 88.8158 9.375C81.5378 9.375 78.9474 6.625 78.9474 6.625V-13.375Z" fill="#EE4236"/>
<path d="M236.842 -13.375H256.579V6.625C256.579 6.625 253.988 9.375 246.711 9.375C239.433 9.375 236.842 6.625 236.842 6.625V-13.375Z" fill="#EE4236"/>
<path d="M315.789 -13.375H335.526V6.625C335.526 6.625 332.936 9.375 325.658 9.375C318.38 9.375 315.789 6.625 315.789 6.625V-13.375Z" fill="#EE4236"/>
<path d="M39.4737 -13.375H59.2105V6.625C59.2105 6.625 56.6201 9.375 49.3421 9.375C42.0642 9.375 39.4737 6.625 39.4737 6.625V-13.375Z" fill="#EE4236"/>
<path d="M197.368 -13.375H217.105V6.625C217.105 6.625 214.515 9.375 207.237 9.375C199.959 9.375 197.368 6.625 197.368 6.625V-13.375Z" fill="#EE4236"/>
<path d="M118.421 -13.375H138.158V6.625C138.158 6.625 135.567 9.375 128.289 9.375C121.011 9.375 118.421 6.625 118.421 6.625V-13.375Z" fill="#EE4236"/>
<path d="M276.316 -13.375H296.053V6.625C296.053 6.625 293.462 9.375 286.184 9.375C278.906 9.375 276.316 6.625 276.316 6.625V-13.375Z" fill="#EE4236"/>
<path d="M355.263 -13.375H375V6.625C375 6.625 372.41 9.375 365.132 9.375C357.854 9.375 355.263 6.625 355.263 6.625V-13.375Z" fill="#EE4236"/>
<path d="M19.7369 -13.375H39.4737V6.625C39.4737 6.625 36.8833 9.375 29.6053 9.375C22.3273 9.375 19.7369 6.625 19.7369 6.625V-13.375Z" fill="#009246"/>
<path d="M177.632 -13.375H197.368V6.625C197.368 6.625 194.778 9.375 187.5 9.375C180.222 9.375 177.632 6.625 177.632 6.625V-13.375Z" fill="#009246"/>
<path d="M98.6842 -13.375H118.421V6.625C118.421 6.625 115.831 9.375 108.553 9.375C101.275 9.375 98.6842 6.625 98.6842 6.625V-13.375Z" fill="#009246"/>
<path d="M256.579 -13.375H276.316V6.625C276.316 6.625 273.725 9.375 266.447 9.375C259.169 9.375 256.579 6.625 256.579 6.625V-13.375Z" fill="#009246"/>
<path d="M335.526 -13.375H355.263V6.625C355.263 6.625 352.673 9.375 345.395 9.375C338.117 9.375 335.526 6.625 335.526 6.625V-13.375Z" fill="#009246"/>
<path d="M59.2105 -13.375H78.9474V6.625C78.9474 6.625 76.3569 9.375 69.0789 9.375C61.801 9.375 59.2105 6.625 59.2105 6.625V-13.375Z" fill="#009246"/>
<path d="M217.105 -13.375H236.842V6.625C236.842 6.625 234.252 9.375 226.974 9.375C219.696 9.375 217.105 6.625 217.105 6.625V-13.375Z" fill="#009246"/>
<path d="M138.158 -13.375H157.895V6.625C157.895 6.625 155.304 9.375 148.026 9.375C140.748 9.375 138.158 6.625 138.158 6.625V-13.375Z" fill="#009246"/>
<path d="M296.053 -13.375H315.789V6.625C315.789 6.625 313.199 9.375 305.921 9.375C298.643 9.375 296.053 6.625 296.053 6.625V-13.375Z" fill="#009246"/>
</g>
<defs>
<clipPath id="clip0_534_66381">
<rect width="375" height="17" fill="white" transform="translate(0 -5)"/>
</clipPath>
</defs>
</svg>
